# xmcd
#
# Track frame offsets:
#	150
#	20472
#	35160
#	46592
#	62645
#	72915
#	89787
#	101232
#	119655
#	138352
#
# Disc length: 2029 seconds
#
# Revision: 1
# Processed by: cddbd v1.4PL0 Copyright (c) Steve Scherf et al.
# Submitted via: audiograbber 1.80.04
#
DISCID=9207eb0a
DTITLE=Various Artist - Les Grandes Chansons Du Country Pop (Vol 5) 
DYEAR=1900
DGENRE=Bass
TTITLE0=Robert Sawyer - Quand J'aime Une Fois J'aime Pour Toujours
TTITLE1=Ray Fontaine - Une Autre Chambre D'hotel
TTITLE2=Colette Dénommée - Crazy
TTITLE3=Robert Sawyer - Pardon
TTITLE4=Sylvie Beauchemin - Priere D'une Mere
TTITLE5=Ray Fontaine - Je Pensais Toujours A toi
TTITLE6=Robert Sawyer - Etre Naturel
TTITLE7=Colette Dénommée - Aides-Moi A Passer La Nuit
TTITLE8=Robert Sawyer - Le Bouquet D'or
TTITLE9=Lynda Dénommée - Vivre Ma Vie Avec Toi
EXTD=
EXTT0=
EXTT1=
EXTT2=
EXTT3=
EXTT4=
EXTT5=
EXTT6=
EXTT7=
EXTT8=
EXTT9=
PLAYORDER=
